<?xml version="1.0" encoding="utf-8"?>
<!-- Generator: Adobe Illustrator 16.0.0, SVG Export Plug-In . SVG Version: 6.00 Build 0)  -->
<!DOCTYPE svg PUBLIC "-//W3C//DTD SVG 1.1//EN" "http://www.w3.org/Graphics/SVG/1.1/DTD/svg11.dtd">
<svg version="1.1" id="Layer_1" xmlns="http://www.w3.org/2000/svg" xmlns:xlink="http://www.w3.org/1999/xlink" x="0px" y="0px"
	 width="200px" height="200px" viewBox="0 0 200 200" enable-background="new 0 0 200 200" xml:space="preserve">
<g>
	<g>
		<path d="M24.433,183.257c3.618,3.621,3.063,7.195-1.23,7.952l-7.606,1.338c-4.293,0.755-7.191-2.143-6.434-6.437l1.335-7.607
			c0.756-4.294,4.333-4.848,7.952-1.229L24.433,183.257z"/>
		<path d="M21.11,163.206l3.859-3.857l-0.344,0.344l0.385-0.301l-0.041-0.043l-0.344,0.344l0.385-0.301l-0.007,0.005l0.007-0.005
			l0,0l-0.007,0.005l0.007-0.005c-0.014-0.02-0.067-0.118-0.104-0.252c-0.038-0.137-0.06-0.301-0.06-0.43
			c0-0.097,0.013-0.172,0.019-0.202l0.003-0.015v-0.002l-0.401-0.133l0.376,0.19l0.025-0.058l-0.401-0.133l0.376,0.19l11.05-21.688
			l-0.347-0.177l0.316,0.232l0.031-0.056l-0.347-0.177l0.316,0.232l0.023-0.026c0.058-0.068,0.245-0.208,0.433-0.288
			c0.096-0.042,0.188-0.07,0.256-0.086l0.078-0.015l0.025-0.002v-0.415l-0.064,0.408l0.064,0.007v-0.415l-0.064,0.408l24.04,3.811
			l0.085-0.535l-0.137,0.526l0.052,0.009l0.085-0.535l-0.137,0.526l0.042-0.157l-0.051,0.151l0.009,0.006l0.042-0.157l-0.051,0.151
			c0.002,0,0.074,0.03,0.165,0.095c0.14,0.092,0.31,0.266,0.399,0.401c0.044,0.066,0.07,0.122,0.081,0.144l0,0.009l0.143-0.051
			l-0.143,0.038v0.013l0.143-0.051l-0.143,0.038l0.521-0.133l-0.533,0.083l0.012,0.05l0.521-0.133l-0.533,0.083l3.807,24.038
			l0.4-0.064h-0.404l0.004,0.064l0.4-0.064h-0.404l-0.005,0.047c-0.012,0.107-0.109,0.385-0.237,0.565
			c-0.063,0.092-0.126,0.158-0.158,0.188l-0.017,0.014l-0.002,0.002l0.235,0.32l-0.179-0.351l-0.056,0.03l0.235,0.32l-0.179-0.351
			l-21.688,11.05l0.206,0.406l-0.151-0.432l-0.055,0.023l0.206,0.408l-0.151-0.432l0.021,0.058l-0.021-0.058l0,0l0.021,0.058
			l-0.021-0.058c-0.002,0.002-0.088,0.023-0.215,0.021c-0.17,0.002-0.4-0.039-0.541-0.097c-0.073-0.027-0.121-0.054-0.14-0.063
			l-0.007-0.006l-0.209,0.298l0.255-0.257l-0.046-0.041l-0.209,0.298l0.255-0.257l-17.209-17.208L21.11,163.206l-3.858,3.859
			l17.208,17.21c1.203,1.195,2.578,1.999,3.985,2.531c1.413,0.525,2.876,0.787,4.374,0.789c0.836,0,1.69-0.086,2.547-0.272
			c0.856-0.189,1.722-0.483,2.568-0.914l21.685-11.05c1.053-0.537,1.951-1.219,2.715-1.974c1.144-1.141,2.001-2.447,2.62-3.868
			c0.612-1.427,0.983-2.98,0.988-4.669c0-0.533-0.042-1.084-0.13-1.643l-3.804-24.037c-0.209-1.307-0.65-2.482-1.22-3.533
			c-0.866-1.57-2.019-2.877-3.411-3.935c-0.698-0.526-1.459-0.986-2.294-1.36c-0.833-0.374-1.743-0.664-2.722-0.819l-24.038-3.808
			l0,0c-0.559-0.09-1.109-0.129-1.646-0.129c-1.124,0.002-2.19,0.172-3.197,0.46c-1.511,0.44-2.896,1.144-4.143,2.098
			c-1.241,0.96-2.359,2.186-3.169,3.765l-11.049,21.685c-0.432,0.849-0.725,1.712-0.914,2.569c-0.189,0.857-0.273,1.707-0.273,2.549
			c0.004,1.494,0.265,2.958,0.791,4.371c0.53,1.406,1.332,2.781,2.53,3.984L21.11,163.206z"/>
		<path d="M184.492,34.245l-3.857,3.859l0.345-0.344l-0.382,0.302l0.037,0.042l0.345-0.344l-0.382,0.302l0.003-0.005l-0.007,0.005
			h0.004l0.003-0.005l-0.007,0.005c0.018,0.019,0.066,0.119,0.104,0.253c0.039,0.134,0.06,0.3,0.06,0.43
			c0,0.094-0.012,0.169-0.018,0.201l-0.003,0.017l0,0l0.4,0.132l-0.377-0.19l-0.023,0.058l0.4,0.132l-0.377-0.19l-11.048,21.685
			l0.346,0.176l-0.318-0.232l-0.03,0.056l0.349,0.176l-0.318-0.232l-0.023,0.027c-0.055,0.066-0.243,0.208-0.434,0.289
			c-0.095,0.041-0.188,0.07-0.252,0.085l-0.08,0.015l-0.027,0l0.001,0.4l0.064-0.394l-0.065-0.007l0.001,0.4l0.064-0.394
			l-24.038-3.807l-0.082,0.532l0.13-0.521l-0.048-0.011l-0.082,0.532l0.13-0.521l-0.036,0.152l0.051-0.15l-0.015-0.002l-0.036,0.152
			l0.051-0.15c0,0-0.077-0.028-0.167-0.092c-0.139-0.094-0.31-0.269-0.396-0.402c-0.045-0.067-0.074-0.121-0.083-0.143l-0.004-0.01
			l-0.145,0.05l0.148-0.036l-0.004-0.014l-0.145,0.05l0.148-0.036l-0.524,0.132l0.533-0.083l-0.009-0.048l-0.524,0.132l0.533-0.083
			l-3.803-24.04l-0.405,0.063l0.408,0l-0.003-0.064l-0.405,0.063l0.408,0l0.006-0.044c0.009-0.107,0.105-0.387,0.236-0.568
			c0.061-0.091,0.123-0.159,0.152-0.188l0.02-0.015v-0.002l-0.233-0.32l0.182,0.352l0.052-0.031l-0.233-0.32l0.182,0.352
			l21.688-11.049l-0.209-0.406l0.147,0.431l0.062-0.025l-0.209-0.406l0.147,0.431l-0.018-0.058l0.018,0.06v-0.002l-0.018-0.058
			l0.018,0.06c0.005-0.002,0.093-0.021,0.219-0.021c0.17-0.004,0.399,0.04,0.542,0.095c0.071,0.027,0.122,0.054,0.14,0.066
			l0.006,0.002l0.208-0.299l-0.255,0.258l0.047,0.041l0.208-0.299l-0.255,0.258l17.209,17.209L184.492,34.245l3.859-3.859
			l-17.208-17.21c-1.204-1.198-2.577-1.999-3.987-2.529c-1.413-0.527-2.875-0.788-4.371-0.792c-0.841,0-1.691,0.083-2.547,0.273
			c-0.859,0.189-1.723,0.483-2.569,0.914l-21.686,11.049c-1.054,0.538-1.948,1.22-2.714,1.976c-1.144,1.14-2.002,2.445-2.619,3.869
			c-0.611,1.423-0.98,2.979-0.986,4.666c0,0.539,0.038,1.089,0.126,1.646l3.81,24.039c0.209,1.308,0.648,2.483,1.22,3.53
			c0.862,1.571,2.018,2.878,3.41,3.936c0.695,0.525,1.462,0.987,2.293,1.36c0.834,0.375,1.742,0.663,2.72,0.817l24.039,3.809
			c0.56,0.088,1.108,0.127,1.644,0.127c1.127-0.001,2.191-0.172,3.201-0.459c1.508-0.442,2.893-1.142,4.139-2.099
			c1.243-0.959,2.362-2.185,3.171-3.764l11.052-21.684l0,0c0.431-0.848,0.726-1.712,0.913-2.569
			c0.191-0.857,0.274-1.707,0.274-2.546c-0.006-1.499-0.265-2.96-0.791-4.372c-0.533-1.409-1.333-2.783-2.532-3.987L184.492,34.245z
			"/>
		<g>
			<path d="M128.191,166.956l-0.646-0.73l-22.849,10.894c-0.081,0.039-0.34,0.136-0.686,0.202c-0.349,0.064-0.782,0.109-1.213,0.107
				c-0.43,0.002-0.861-0.043-1.208-0.107c-0.349-0.066-0.608-0.163-0.686-0.202l-23.618-11.263c-0.052-0.021-0.256-0.14-0.485-0.345
				c-0.35-0.303-0.766-0.797-1.046-1.271c-0.139-0.236-0.251-0.463-0.326-0.647c-0.069-0.185-0.102-0.324-0.108-0.365l-3.805-23.985
				c-0.198-1.24-0.62-2.362-1.167-3.368c-0.826-1.504-1.935-2.763-3.271-3.775c-0.67-0.507-1.4-0.947-2.194-1.307
				c-0.798-0.358-1.666-0.636-2.594-0.782l-24.014-3.827l-0.782,4.899l0.782-4.899c-0.058-0.007-0.285-0.064-0.565-0.195
				c-0.423-0.191-0.96-0.546-1.363-0.923c-0.206-0.185-0.375-0.376-0.5-0.532c-0.12-0.155-0.188-0.28-0.207-0.316l-11.259-23.622
				c-0.042-0.081-0.137-0.34-0.203-0.688c-0.067-0.346-0.108-0.777-0.108-1.209c0-0.431,0.041-0.864,0.108-1.209
				c0.066-0.348,0.161-0.607,0.203-0.686L35.15,74.213l-0.921-0.773c-0.166-0.146-0.551-0.372-1.04-0.525
				c-0.487-0.159-1.071-0.249-1.583-0.249c-0.509-0.004-0.94,0.093-1.143,0.179l-7.01,2.844l-8.029,16.841
				c-0.487,1.031-0.79,2.054-0.988,3.082c-0.196,1.027-0.287,2.055-0.288,3.084c0.001,1.029,0.092,2.059,0.288,3.085
				c0.198,1.027,0.501,2.054,0.988,3.079l11.259,23.622c0.506,1.056,1.14,1.954,1.842,2.758c1.058,1.199,2.273,2.198,3.622,3.011
				c0.677,0.406,1.386,0.765,2.143,1.06c0.755,0.294,1.556,0.53,2.424,0.67l0,0l24.009,3.826l0.011,0.004
				c0.035,0.009,0.142,0.052,0.267,0.136c0.194,0.122,0.417,0.342,0.552,0.541c0.07,0.097,0.116,0.185,0.139,0.245l0.023,0.063
				l0.002,0.009l3.805,23.979c0.188,1.154,0.538,2.194,0.986,3.166c0.673,1.448,1.555,2.749,2.62,3.915
				c0.534,0.578,1.111,1.124,1.754,1.619c0.643,0.5,1.343,0.954,2.136,1.332l23.618,11.263c1.03,0.486,2.051,0.787,3.082,0.987
				c1.024,0.195,2.055,0.287,3.083,0.287c1.03,0,2.057-0.092,3.086-0.287c1.025-0.2,2.053-0.501,3.08-0.989l17.212-8.207
				l2.701-7.165c0.074-0.188,0.153-0.571,0.153-1.029c0-0.521-0.099-1.128-0.27-1.636
				C128.595,167.526,128.349,167.122,128.191,166.956z"/>
			<path d="M191.169,95.613c-0.199-1.026-0.499-2.052-0.989-3.081l-11.261-23.619c-0.506-1.057-1.14-1.953-1.842-2.758
				c-1.06-1.198-2.276-2.195-3.624-3.009c-0.679-0.406-1.39-0.763-2.146-1.06c-0.755-0.294-1.557-0.529-2.425-0.665l-24.009-3.786
				l-0.009-0.002c-0.032-0.01-0.14-0.053-0.265-0.137c-0.192-0.12-0.417-0.338-0.551-0.535c-0.066-0.098-0.112-0.185-0.135-0.244
				l-0.025-0.063l0.002-0.005l-3.811-24.036c-0.186-1.157-0.538-2.196-0.983-3.165c-0.673-1.45-1.559-2.753-2.621-3.916
				c-0.535-0.582-1.113-1.125-1.755-1.623c-0.64-0.498-1.34-0.951-2.134-1.33l-23.621-11.26c-1.03-0.491-2.055-0.789-3.08-0.989
				c-1.027-0.197-2.059-0.287-3.089-0.287c-1.03,0-2.058,0.09-3.085,0.287c-1.025,0.201-2.046,0.501-3.077,0.988L73.018,22.581
				c-1.058,0.505-1.953,1.141-2.756,1.842c-1.202,1.058-2.199,2.274-3.011,3.625c-0.406,0.675-0.764,1.385-1.058,2.142
				c-0.297,0.756-0.534,1.557-0.67,2.425L61.715,56.65l-0.002,0.009c-0.009,0.035-0.054,0.139-0.135,0.266
				c-0.122,0.191-0.341,0.417-0.538,0.548c-0.095,0.068-0.186,0.115-0.243,0.138l-0.062,0.023l-0.009,0.001l-24.003,3.787
				c-1.158,0.183-2.197,0.537-3.169,0.981c-1.451,0.673-2.752,1.557-3.916,2.619c-0.161,0.148-0.31,0.306-0.464,0.461
				c0.813-0.182,1.625-0.259,2.431-0.259c1.313,0,2.612,0.205,3.861,0.605c1.247,0.404,2.458,1.001,3.549,1.911l3.374,2.832
				l19.89-3.136c1.243-0.196,2.366-0.616,3.371-1.164c1.505-0.827,2.765-1.936,3.779-3.273c0.504-0.669,0.949-1.399,1.306-2.197
				s0.631-1.662,0.78-2.595l3.807-24.042c0.007-0.054,0.063-0.281,0.195-0.562c0.192-0.422,0.545-0.96,0.921-1.363
				c0.186-0.204,0.375-0.375,0.531-0.495c0.155-0.123,0.278-0.191,0.318-0.209l23.621-11.261c0.078-0.04,0.334-0.136,0.683-0.2
				c0.347-0.069,0.778-0.109,1.207-0.109c0.432,0,0.865,0.04,1.214,0.109c0.346,0.064,0.604,0.16,0.686,0.202l23.619,11.259
				c0.052,0.023,0.252,0.14,0.485,0.347c0.35,0.302,0.763,0.793,1.045,1.268c0.144,0.238,0.253,0.466,0.323,0.65
				c0.074,0.185,0.104,0.322,0.111,0.364l3.809,24.041c0.197,1.242,0.619,2.367,1.165,3.371c0.826,1.504,1.939,2.763,3.277,3.777
				c0.668,0.505,1.399,0.944,2.193,1.304c0.804,0.354,1.667,0.63,2.602,0.779l24.011,3.784c0.055,0.006,0.28,0.063,0.561,0.193
				c0.419,0.192,0.956,0.545,1.359,0.92c0.205,0.186,0.376,0.374,0.496,0.53c0.12,0.156,0.191,0.279,0.211,0.315l11.26,23.62
				c0.039,0.081,0.134,0.338,0.2,0.686c0.067,0.347,0.109,0.778,0.109,1.21c0,0.431-0.042,0.863-0.109,1.209
				c-0.066,0.348-0.161,0.606-0.2,0.687l-11.262,23.62c-0.023,0.052-0.144,0.253-0.348,0.485c-0.304,0.351-0.798,0.766-1.271,1.045
				c-0.237,0.144-0.467,0.256-0.65,0.328c-0.186,0.073-0.323,0.104-0.363,0.11l-24.015,3.825c-1.242,0.199-2.364,0.619-3.369,1.167
				c-1.504,0.831-2.761,1.938-3.774,3.274c-0.504,0.671-0.947,1.401-1.303,2.197c-0.359,0.799-0.636,1.665-0.784,2.596
				l-3.112,19.621l2.798,3.165c0.97,1.107,1.61,2.354,2.047,3.643c0.431,1.29,0.654,2.638,0.659,4.004
				c0,0.823-0.094,1.657-0.288,2.489c0.83-0.854,1.551-1.797,2.163-2.813c0.407-0.678,0.765-1.387,1.062-2.146
				c0.295-0.756,0.528-1.556,0.668-2.426l3.805-23.977l0.019-0.054c0.023-0.064,0.083-0.181,0.176-0.302
				c0.136-0.19,0.344-0.387,0.525-0.503c0.089-0.058,0.167-0.097,0.218-0.117l0.051-0.02l0.011-0.002l24.007-3.824
				c1.155-0.188,2.192-0.539,3.163-0.986c1.448-0.675,2.748-1.558,3.912-2.621c0.58-0.535,1.124-1.115,1.622-1.756
				c0.499-0.639,0.954-1.342,1.33-2.135l11.261-23.62c0.49-1.027,0.79-2.054,0.989-3.081c0.197-1.025,0.287-2.054,0.287-3.084
				C191.456,97.668,191.365,96.64,191.169,95.613z"/>
		</g>
		<path d="M97.267,85.831c0.848-1.071,2.618-1.658,3.936-1.304l10.044,2.691c1.314,0.353,2.684,1.721,3.036,3.038l2.691,10.043
			c0.354,1.319-0.234,3.088-1.304,3.933l-8.248,6.504c-1.071,0.847-2.833,0.856-3.915,0.021l-5.237-4.045
			c-1.076-0.834-2.645-2.4-3.481-3.479l-4.046-5.243c-0.835-1.083-0.825-2.842,0.019-3.914L97.267,85.831z"/>
		<path d="M93.512,89.586l3.897,3.075l-1.396-1.104l1.063,1.436c0.079-0.06,0.195-0.156,0.334-0.332l-1.396-1.104l1.063,1.436
			l-0.447-0.603l0.236,0.718c0.042-0.016,0.089-0.029,0.211-0.115l-0.447-0.603l0.236,0.718l-0.238-0.73v0.76
			c0.153-0.001,0.197-0.018,0.238-0.03l-0.238-0.73v0.76v-1.793l-0.467,1.728c0.218,0.058,0.364,0.065,0.467,0.066v-1.793
			l-0.467,1.728h0.003l10.043,2.693l0.336-1.252l-0.691,1.109c0.033,0.02,0.119,0.077,0.355,0.144l0.336-1.252l-0.691,1.109
			l0.103-0.165l-0.116,0.156l0.014,0.009l0.103-0.165l-0.116,0.156l0.027,0.026l0.02,0.022l0.004,0.001l0.896-0.648l-1.05,0.282
			c0.089,0.303,0.154,0.361,0.154,0.366l0.896-0.648l-1.05,0.282l2.695,10.042l1.724-0.463h-1.79c0,0.098,0.009,0.246,0.066,0.463
			l1.724-0.463h-1.79h0.69l-0.644-0.287c-0.022,0.07-0.043,0.084-0.047,0.287h0.69l-0.644-0.287l0.804,0.358l-0.703-0.521
			c-0.06,0.081-0.084,0.129-0.101,0.163l0.804,0.358l-0.703-0.521l1.433,1.061l-1.101-1.395c-0.176,0.141-0.273,0.256-0.332,0.334
			l1.433,1.061l-1.101-1.395l-8.248,6.504l1.279,1.62l-0.628-1.973c-0.174,0.056-0.398,0.156-0.651,0.353l1.279,1.62l-0.628-1.973
			l0.453,1.42v-1.491c-0.134,0-0.273,0.018-0.453,0.071l0.453,1.42v-1.491v1.5l0.445-1.43c-0.177-0.054-0.312-0.07-0.445-0.07v1.5
			l0.445-1.43l-0.619,1.982l1.265-1.64c-0.249-0.191-0.472-0.289-0.646-0.343l-0.619,1.982l1.265-1.64l-5.242-4.047
			c-0.135-0.104-0.353-0.284-0.591-0.499c-0.362-0.326-0.775-0.73-1.142-1.117c-0.367-0.383-0.693-0.761-0.852-0.967l-4.048-5.243
			l-1.638,1.263l1.983-0.619c-0.058-0.173-0.153-0.395-0.346-0.644l-1.638,1.263l1.983-0.619l-1.432,0.448l1.5,0.001
			c0-0.136-0.016-0.271-0.069-0.449l-1.432,0.448l1.5,0.001h-1.491l1.419,0.45c0.056-0.177,0.073-0.314,0.072-0.45h-1.491
			l1.419,0.45l-1.977-0.626l1.624,1.28c0.195-0.251,0.297-0.477,0.353-0.653l-1.977-0.626l1.624,1.28l6.505-8.247L93.512,89.586
			l-3.893-3.073l-6.505,8.247c-0.626,0.791-1.044,1.643-1.316,2.491c-0.269,0.848-0.39,1.702-0.392,2.554
			c0.002,0.835,0.121,1.675,0.381,2.512c0.259,0.834,0.668,1.674,1.271,2.46l7.219,2.28c0.311,0.404,0.64,0.787,0.983,1.171
			c0.521,0.576,1.077,1.146,1.647,1.688c0.571,0.544,1.14,1.049,1.742,1.515l2.074,7.007c0.784,0.607,1.626,1.016,2.46,1.274
			c0.836,0.262,1.676,0.38,2.515,0.382c0.849-0.002,1.702-0.124,2.553-0.394c0.846-0.269,1.696-0.689,2.491-1.311l8.244-6.507
			c0.608-0.479,1.096-1.009,1.499-1.555c0.605-0.82,1.03-1.683,1.33-2.582c0.298-0.903,0.466-1.849,0.471-2.87
			c-0.002-0.67-0.076-1.371-0.273-2.107l-2.692-10.042c-0.239-0.896-0.603-1.647-1.018-2.316c-0.629-1.002-1.378-1.829-2.266-2.544
			c-0.445-0.354-0.928-0.681-1.465-0.968c-0.536-0.288-1.125-0.537-1.799-0.718l-10.04-2.692l0,0
			c-0.736-0.194-1.439-0.271-2.107-0.271c-1.362,0.006-2.592,0.297-3.758,0.811c-0.58,0.261-1.146,0.583-1.694,0.986
			c-0.545,0.405-1.076,0.894-1.554,1.5L93.512,89.586z"/>
		<path d="M29.065,75.428l4.479,2.134l-1.11-0.528l0.673,0.983c0.296-0.203,0.421-0.421,0.437-0.455l-1.11-0.528l0.673,0.983
			l-1.13-1.65l0.596,1.906c0.204-0.061,0.388-0.156,0.534-0.255l-1.13-1.65l0.596,1.906l-0.628-2.01v2.105
			c0.207,0.001,0.427-0.032,0.628-0.096l-0.628-2.01v2.105v-1.83l-0.702,1.699c0.169,0.073,0.42,0.134,0.702,0.131v-1.83
			l-0.702,1.699l0.364-0.882l-0.649,0.717c0.019,0.017,0.112,0.093,0.285,0.165l0.364-0.882l-0.649,0.717l28.032,25.425l0.149-0.167
			l-0.161,0.158l0.012,0.009l0.149-0.167l-0.161,0.158l0.033-0.034l-0.034,0.032l0.001,0.002l0.033-0.034l-0.034,0.032
			c0.004,0.002,0.069,0.093,0.12,0.238c0.051,0.145,0.086,0.338,0.083,0.488c0,0.095-0.012,0.172-0.021,0.217l-0.011,0.038
			l0.011,0.003l-0.011-0.003l0,0l0.011,0.003l-0.011-0.003l0.2,0.086l-0.193-0.101l-0.006,0.015l0.2,0.086l-0.193-0.101
			L47.363,126.77l0.107,0.058l-0.107-0.061v0.005l0.107,0.056l-0.107-0.061l-0.028,0.037c-0.064,0.094-0.313,0.309-0.598,0.44
			c-0.286,0.142-0.589,0.191-0.675,0.187h-0.025l-0.002-0.002l-0.012,0.109l0.014-0.107l-0.002-0.002l-0.012,0.109l0.014-0.107
			h0.002l-7.761-1.246c-0.058-0.005-0.283-0.061-0.563-0.193c-0.426-0.193-0.963-0.55-1.366-0.925
			c-0.203-0.187-0.375-0.376-0.497-0.532c-0.123-0.157-0.191-0.282-0.21-0.318l-11.259-23.622c-0.042-0.082-0.138-0.342-0.203-0.688
			c-0.067-0.346-0.108-0.779-0.108-1.212c0-0.432,0.041-0.862,0.108-1.208c0.064-0.347,0.161-0.607,0.201-0.687l9.165-19.237
			L29.065,75.428l-4.479-2.135l-9.163,19.24c-0.49,1.028-0.79,2.053-0.988,3.077c-0.196,1.026-0.287,2.056-0.287,3.084
			c0,1.031,0.09,2.062,0.287,3.088c0.2,1.027,0.503,2.054,0.99,3.079l11.259,23.622c0.506,1.056,1.14,1.954,1.842,2.758
			c1.058,1.199,2.273,2.198,3.621,3.011c0.675,0.406,1.385,0.765,2.14,1.06c0.755,0.297,1.555,0.535,2.42,0.675l7.761,1.242h0.002
			c0.536,0.088,1.07,0.125,1.592,0.125c1.064,0,2.081-0.161,3.041-0.433c1.443-0.412,2.775-1.074,3.972-1.975
			c1.195-0.902,2.273-2.057,3.062-3.54l11.79-22.319c0.84-1.595,1.174-3.267,1.177-4.874c-0.003-1.469-0.281-2.906-0.833-4.276
			c-0.557-1.366-1.399-2.682-2.614-3.788L37.625,70.722c-0.755-0.686-1.626-1.255-2.591-1.656c-0.961-0.398-2.02-0.62-3.089-0.62
			c-0.79,0-1.579,0.119-2.333,0.355c-1.132,0.354-2.17,0.966-3.019,1.749c-0.854,0.783-1.525,1.728-2.008,2.742L29.065,75.428z"/>
		<path d="M29.065,75.428l4.479,2.134l-1.11-0.528l0.673,0.983c0.296-0.203,0.421-0.421,0.437-0.455l-1.11-0.528l0.673,0.983
			l-1.13-1.65l0.596,1.906c0.204-0.061,0.388-0.156,0.534-0.255l-1.13-1.65l0.596,1.906l-0.628-2.01v2.105
			c0.207,0.001,0.427-0.032,0.628-0.096l-0.628-2.01v2.105v-1.83l-0.702,1.699c0.169,0.073,0.42,0.134,0.702,0.131v-1.83
			l-0.702,1.699l0.364-0.882l-0.649,0.717c0.019,0.017,0.112,0.093,0.285,0.165l0.364-0.882l-0.649,0.717l28.032,25.425l0.149-0.167
			l-0.161,0.158l0.012,0.009l0.149-0.167l-0.161,0.158l0.033-0.034l-0.034,0.032l0.001,0.002l0.033-0.034l-0.034,0.032
			c0.004,0.002,0.069,0.093,0.12,0.238c0.051,0.145,0.086,0.338,0.083,0.488c0,0.095-0.012,0.172-0.021,0.217l-0.011,0.038
			l0.011,0.003l-0.011-0.003l0,0l0.011,0.003l-0.011-0.003l0.2,0.086l-0.193-0.101l-0.006,0.015l0.2,0.086l-0.193-0.101
			L47.363,126.77l0.107,0.058l-0.107-0.061v0.005l0.107,0.056l-0.107-0.061l-0.028,0.037c-0.064,0.094-0.313,0.309-0.598,0.44
			c-0.286,0.142-0.589,0.191-0.675,0.187h-0.025l-0.002-0.002l-0.012,0.109l0.014-0.107l-0.002-0.002l-0.012,0.109l0.014-0.107
			h0.002l-7.761-1.246c-0.058-0.005-0.283-0.061-0.563-0.193c-0.426-0.193-0.963-0.55-1.366-0.925
			c-0.203-0.187-0.375-0.376-0.497-0.532c-0.123-0.157-0.191-0.282-0.21-0.318l-11.259-23.622c-0.042-0.082-0.138-0.342-0.203-0.688
			c-0.067-0.346-0.108-0.779-0.108-1.212c0-0.432,0.041-0.862,0.108-1.208c0.064-0.347,0.161-0.607,0.201-0.687l9.165-19.237
			L29.065,75.428l-4.479-2.135l-9.163,19.24c-0.49,1.028-0.79,2.053-0.988,3.077c-0.196,1.026-0.287,2.056-0.287,3.084
			c0,1.031,0.09,2.062,0.287,3.088c0.2,1.027,0.503,2.054,0.99,3.079l11.259,23.622c0.506,1.056,1.14,1.954,1.842,2.758
			c1.058,1.199,2.273,2.198,3.621,3.011c0.675,0.406,1.385,0.765,2.14,1.06c0.755,0.297,1.555,0.535,2.42,0.675l7.761,1.242h0.002
			c0.536,0.088,1.07,0.125,1.592,0.125c1.064,0,2.081-0.161,3.041-0.433c1.443-0.412,2.775-1.074,3.972-1.975
			c1.195-0.902,2.273-2.057,3.062-3.54l11.79-22.319c0.84-1.595,1.174-3.267,1.177-4.874c-0.003-1.469-0.281-2.906-0.833-4.276
			c-0.557-1.366-1.399-2.682-2.614-3.788L37.625,70.722c-0.755-0.686-1.626-1.255-2.591-1.656c-0.961-0.398-2.02-0.62-3.089-0.62
			c-0.79,0-1.579,0.119-2.333,0.355c-1.132,0.354-2.17,0.966-3.019,1.749c-0.854,0.783-1.525,1.728-2.008,2.742L29.065,75.428z"/>
		<path d="M126.657,172.071l2.245,4.423c1.312-0.662,2.492-1.648,3.336-2.919c0.85-1.268,1.332-2.815,1.328-4.362
			c0-1.103-0.236-2.194-0.661-3.181c-0.425-0.99-1.033-1.88-1.757-2.639l-26.123-27.382c-1.1-1.151-2.391-1.944-3.721-2.467
			c-1.336-0.522-2.729-0.78-4.148-0.784c-0.85,0.002-1.713,0.095-2.574,0.305c-0.861,0.207-1.724,0.531-2.554,0.997l-22.012,12.351
			c-0.956,0.538-1.768,1.201-2.458,1.929c-1.035,1.098-1.81,2.34-2.361,3.683c-0.545,1.344-0.875,2.794-0.876,4.348
			c-0.001,0.604,0.053,1.223,0.168,1.853v-0.002l1.438,7.728c0.213,1.152,0.596,2.18,1.067,3.14c0.71,1.43,1.627,2.708,2.719,3.843
			c0.55,0.567,1.142,1.096,1.795,1.577c0.654,0.479,1.367,0.916,2.167,1.275l23.896,10.663c0.97,0.428,1.93,0.694,2.892,0.872
			c0.959,0.173,1.92,0.252,2.876,0.252c1.1,0,2.198-0.104,3.292-0.326c1.093-0.224,2.179-0.56,3.264-1.107l19.006-9.645
			L126.657,172.071l-2.246-4.425l-19.001,9.643c-0.086,0.049-0.376,0.159-0.756,0.234c-0.381,0.081-0.852,0.127-1.313,0.125
			c-0.399,0-0.793-0.035-1.104-0.091c-0.311-0.058-0.545-0.138-0.617-0.174l-23.898-10.661c-0.051-0.021-0.257-0.138-0.494-0.336
			c-0.362-0.296-0.789-0.777-1.081-1.244c-0.148-0.234-0.265-0.46-0.344-0.645c-0.076-0.183-0.11-0.322-0.12-0.361l-1.438-7.729
			v-0.004l-0.127,0.026l0.126-0.018l0-0.009l-0.127,0.026l0.126-0.018v-0.041c0-0.063,0.009-0.189,0.057-0.35
			c0.06-0.23,0.197-0.512,0.333-0.701c0.07-0.095,0.137-0.167,0.184-0.208l0.052-0.043l0.006-0.005l-0.042-0.068l0.04,0.068h0.001
			l-0.042-0.068l0.04,0.068l22.015-12.351l-0.107-0.188l0.093,0.195l0.014-0.007l-0.107-0.188l0.093,0.195l-0.005-0.009l0.002,0.007
			l0.002,0.002l-0.005-0.009l0.002,0.007c0.011,0,0.125-0.035,0.286-0.033c0.171-0.002,0.39,0.039,0.528,0.097
			c0.07,0.026,0.123,0.057,0.148,0.075l0.023,0.014l0.089-0.11l-0.101,0.098l0.012,0.013l0.089-0.11l-0.101,0.098l26.122,27.383
			l0.714-0.679l-0.893,0.384c0.077,0.181,0.161,0.277,0.179,0.295l0.714-0.679l-0.893,0.384l1.71-0.734h-1.856
			c0,0.292,0.068,0.557,0.146,0.734l1.71-0.734h-1.856h2.047l-1.708-1.137c-0.193,0.281-0.341,0.727-0.339,1.137h2.047l-1.708-1.137
			l0.982,0.653l-0.551-1.083c-0.032,0.017-0.24,0.14-0.432,0.43l0.982,0.653l-0.551-1.083L126.657,172.071z"/>
		<line x1="59.782" y1="117.824" x2="21.12" y2="97.169"/>
		<path d="M62.902,110.242L22.657,94.294c-1.589-0.847-3.565-0.249-4.415,1.339c-0.846,1.589-0.846,1.589-0.846,1.589
			c1.201,1.553,3.925,3.829,6.051,5.06l33.739,19.504c1.587,0.849,1.749-2.372,2.596-3.961c0.847-1.588,3.126-2.028,1.534-2.877"/>
		<path d="M95.974,88.484c0,0,0.104-0.107,0.299-0.311c0.046-0.051,0.102-0.107,0.157-0.17l0.091-0.094l0.027-0.056
			c0.042-0.077,0.09-0.15,0.156-0.239c0.097-0.155,0.207-0.327,0.325-0.514c0.112-0.209,0.235-0.436,0.366-0.678
			c0.246-0.518,0.523-1.121,0.775-1.839c1.049-2.843,1.814-7.234,1.736-11.515c-0.013-1.071-0.077-2.135-0.188-3.16
			c-0.1-1.031-0.278-2.015-0.464-2.95c-0.211-0.92-0.438-1.794-0.717-2.565c-0.07-0.19-0.139-0.381-0.204-0.568
			c-0.074-0.179-0.148-0.353-0.223-0.524c-0.132-0.355-0.304-0.649-0.445-0.951c-0.142-0.303-0.315-0.542-0.453-0.8
			c-0.149-0.245-0.309-0.441-0.44-0.648c-0.29-0.37-0.541-0.682-0.763-0.884c-0.209-0.233-0.394-0.358-0.51-0.459
			c-0.117-0.101-0.179-0.155-0.179-0.155l-0.249-0.211c-2.172-1.874-2.408-5.153-0.538-7.322c1.875-2.172,5.153-2.412,7.322-0.538
			c0.103,0.085,0.206,0.184,0.298,0.276c0,0,0.152,0.154,0.439,0.444c0.283,0.291,0.716,0.714,1.161,1.298
			c0.481,0.571,0.971,1.296,1.487,2.136c0.234,0.421,0.503,0.873,0.732,1.352c0.217,0.479,0.479,0.983,0.676,1.512
			c0.199,0.527,0.426,1.078,0.592,1.644c0.087,0.285,0.175,0.573,0.268,0.865c0.075,0.293,0.151,0.589,0.229,0.888
			c0.308,1.199,0.517,2.452,0.685,3.74c0.141,1.282,0.25,2.6,0.257,3.92c0.026,1.323-0.018,2.651-0.122,3.97
			c-0.094,1.32-0.266,2.627-0.465,3.905c-0.218,1.275-0.46,2.524-0.77,3.724c-0.295,1.2-0.652,2.352-1.023,3.438
			c-0.393,1.088-0.782,2.108-1.236,3.049c-0.432,0.938-0.915,1.796-1.374,2.551c-0.246,0.38-0.485,0.732-0.708,1.057
			c-0.252,0.323-0.484,0.622-0.693,0.89c-0.269,0.309-0.529,0.585-0.752,0.82c-0.056,0.059-0.11,0.114-0.162,0.167l-0.106,0.095
			c-0.065,0.057-0.124,0.109-0.176,0.155c-0.21,0.184-0.326,0.282-0.326,0.282c-1.442,1.265-3.64,1.118-4.901-0.327
			c-1.193-1.362-1.132-3.392,0.092-4.681L95.974,88.484z"/>
		<line x1="83.705" y1="141.744" x2="104.359" y2="180.407"/>
		<path d="M91.286,138.623l15.948,40.25c0.849,1.586,0.248,3.563-1.339,4.41c-1.59,0.849-1.59,0.849-1.59,0.849
			c-1.554-1.201-3.829-3.927-5.057-6.052l-19.507-33.738c-0.849-1.59,3.912-1.981,5.499-2.832c1.591-0.848,0.492-2.887,1.34-1.301"
			/>
		<path d="M62.8,107.305l4.255,2.517c0.069-0.131,0.261-0.406,0.534-0.707c0.408-0.455,1.001-0.967,1.579-1.35
			c0.291-0.193,0.574-0.358,0.819-0.479c0.241-0.119,0.45-0.193,0.555-0.224l-0.647-1.947l0.638,1.949l0.009-0.002l-0.647-1.947
			l0.638,1.949c0.017-0.005,1.135-0.316,2.882-0.604c1.742-0.286,4.117-0.546,6.602-0.479c2.167,0.052,4.408,0.356,6.394,1.01
			c0.992,0.324,1.925,0.73,2.771,1.227c0.852,0.497,1.622,1.079,2.323,1.778c0.7,0.702,1.286,1.476,1.781,2.327
			c0.745,1.276,1.292,2.742,1.658,4.319c0.364,1.575,0.544,3.252,0.584,4.879c0.067,2.565-0.209,5.009-0.503,6.765
			c-0.15,0.877-0.298,1.588-0.408,2.059c-0.058,0.236-0.101,0.411-0.127,0.522c-0.017,0.056-0.027,0.093-0.033,0.112l-0.004,0.017
			l1.944,0.636l-1.94-0.646l-0.004,0.011l1.944,0.636l-1.94-0.646c-0.04,0.145-0.16,0.456-0.357,0.813
			c-0.291,0.535-0.75,1.171-1.225,1.674c-0.233,0.254-0.471,0.479-0.681,0.649c-0.209,0.172-0.389,0.292-0.487,0.344L70.726,146.11
			l0.605,1.025l-0.03-1.131c-0.33-0.009-0.542,0.086-0.575,0.105l0.605,1.025l-0.03-1.131l0.049,1.89l0.594-1.758
			c-0.221-0.086-0.448-0.129-0.643-0.132l0.049,1.89l0.594-1.758l-0.594,1.755l1.412-1.188c-0.182-0.215-0.482-0.441-0.818-0.567
			l-0.594,1.755l1.412-1.188l-0.792,0.666l1.044-0.236c-0.008-0.034-0.071-0.216-0.252-0.43l-0.792,0.666l1.044-0.236l-2.023-7.394
			c-0.316-1.149-0.801-2.17-1.377-3.099c-0.87-1.388-1.944-2.581-3.193-3.6c-0.624-0.509-1.3-0.969-2.027-1.367
			c-0.729-0.401-1.516-0.743-2.378-0.985l-7.619-2.156l-0.191,0.818l0.423-0.707c-0.118-0.075-0.204-0.103-0.231-0.111l-0.191,0.818
			l0.423-0.707l-0.852,1.424l1.444-0.796c-0.175-0.299-0.416-0.521-0.592-0.628l-0.852,1.424l1.444-0.796l-1.614,0.892l1.891,0.048
			c-0.005-0.282-0.103-0.646-0.277-0.939l-1.614,0.892l1.891,0.048l-1.12-0.03l1.013,0.6c0.022-0.036,0.116-0.245,0.107-0.569
			l-1.12-0.03l1.013,0.6l11.665-20.96L62.8,107.305l-4.257-2.515l-11.666,20.96c-0.7,1.249-1.094,2.706-1.056,4.213
			c0.023,0.89,0.197,1.794,0.524,2.649c0.485,1.285,1.313,2.45,2.346,3.342c1.031,0.898,2.255,1.526,3.521,1.883l7.619,2.155
			c0.019,0.002,0.182,0.063,0.391,0.195c0.317,0.196,0.727,0.562,1.007,0.92c0.143,0.179,0.255,0.354,0.329,0.488
			c0.073,0.138,0.104,0.234,0.108,0.249l2.023,7.391c0.23,0.851,0.581,1.676,1.056,2.443c0.709,1.151,1.708,2.162,2.901,2.869
			c1.191,0.713,2.563,1.101,3.904,1.133c1.504,0.04,2.952-0.357,4.2-1.051l20.982-11.646c0.896-0.498,1.661-1.085,2.372-1.724
			c1.063-0.965,1.988-2.057,2.786-3.243c0.396-0.595,0.761-1.214,1.077-1.864c0.32-0.651,0.595-1.338,0.81-2.081
			c0.035-0.129,0.428-1.518,0.796-3.713c0.364-2.197,0.718-5.195,0.63-8.588c-0.073-2.871-0.459-6.033-1.498-9.234
			c-0.521-1.597-1.211-3.204-2.12-4.763c-0.908-1.558-2.038-3.068-3.415-4.442c-1.374-1.371-2.878-2.502-4.433-3.408
			c-2.336-1.362-4.77-2.23-7.137-2.78c-2.37-0.549-4.682-0.78-6.831-0.835c-3.395-0.086-6.402,0.266-8.603,0.636
			c-2.199,0.373-3.59,0.766-3.72,0.803c-0.992,0.284-1.877,0.68-2.72,1.143c-1.257,0.697-2.411,1.544-3.456,2.514
			c-0.523,0.486-1.016,1.003-1.475,1.559c-0.458,0.56-0.881,1.156-1.255,1.826L62.8,107.305z"/>
		<path d="M107.988,100.733c0,0,0.099-0.112,0.284-0.323c0.046-0.054,0.098-0.113,0.155-0.177l0.092-0.106
			c0.054-0.051,0.11-0.106,0.17-0.161c0.232-0.223,0.509-0.483,0.819-0.752c0.267-0.209,0.566-0.442,0.889-0.694
			c0.324-0.223,0.678-0.463,1.057-0.71c0.756-0.458,1.615-0.939,2.554-1.371c0.939-0.455,1.96-0.848,3.048-1.237
			c1.087-0.372,2.237-0.728,3.439-1.022c1.199-0.311,2.446-0.554,3.724-0.772c1.278-0.198,2.584-0.372,3.903-0.465
			c1.317-0.102,2.65-0.147,3.972-0.121c1.319,0.008,2.637,0.118,3.922,0.258c1.285,0.168,2.538,0.376,3.737,0.685
			c0.298,0.076,0.597,0.153,0.887,0.228c0.294,0.092,0.581,0.181,0.865,0.269c0.568,0.165,1.118,0.393,1.644,0.591
			c0.526,0.197,1.032,0.458,1.514,0.674c0.479,0.233,0.931,0.501,1.353,0.734c0.84,0.516,1.563,1.008,2.136,1.487
			c0.583,0.448,1.008,0.878,1.299,1.162c0.289,0.286,0.443,0.44,0.443,0.44c2.038,2.017,2.052,5.307,0.033,7.342
			c-2.018,2.037-5.304,2.053-7.34,0.034c-0.095-0.093-0.186-0.188-0.271-0.286l-0.22-0.258c0,0-0.055-0.062-0.156-0.178
			c-0.096-0.116-0.222-0.301-0.458-0.508c-0.2-0.228-0.514-0.477-0.883-0.769c-0.208-0.132-0.402-0.29-0.648-0.44
			c-0.257-0.136-0.497-0.31-0.799-0.452c-0.301-0.142-0.598-0.313-0.954-0.444c-0.171-0.075-0.345-0.148-0.523-0.224
			c-0.188-0.066-0.378-0.133-0.569-0.202c-0.771-0.28-1.642-0.506-2.562-0.718c-0.937-0.185-1.92-0.367-2.949-0.462
			c-1.031-0.114-2.092-0.176-3.16-0.189c-4.283-0.081-8.673,0.687-11.517,1.738c-0.721,0.25-1.323,0.525-1.84,0.772
			c-0.244,0.131-0.469,0.253-0.681,0.365c-0.185,0.118-0.356,0.226-0.51,0.324c-0.094,0.066-0.166,0.114-0.242,0.157l-0.055,0.029
			l-0.093,0.087c-0.063,0.058-0.121,0.113-0.173,0.161c-0.201,0.192-0.309,0.298-0.309,0.298l-0.012,0.009
			c-1.387,1.324-3.586,1.276-4.913-0.113C106.841,104.115,106.824,102.074,107.988,100.733z"/>
		<path d="M32.065,148.307l3.16-3.156c-0.74-0.74-1.612-1.353-2.577-1.777c-0.964-0.424-2.024-0.656-3.09-0.653
			c-1.386-0.005-2.769,0.395-3.94,1.112c-1.176,0.718-2.137,1.737-2.821,2.91l-12.047,20.53c-0.477,0.816-0.808,1.668-1.023,2.521
			c-0.213,0.855-0.31,1.713-0.311,2.562c0.002,1.315,0.233,2.615,0.703,3.86c0.47,1.242,1.188,2.447,2.226,3.483l9.484,9.486
			c1.039,1.035,2.241,1.753,3.484,2.226c1.249,0.467,2.546,0.699,3.86,0.699c0.849,0,1.707-0.097,2.561-0.311
			c0.853-0.214,1.705-0.547,2.52-1.022l20.534-12.048c1.169-0.684,2.19-1.646,2.907-2.819c0.718-1.171,1.117-2.555,1.116-3.939
			c0-1.067-0.232-2.125-0.657-3.09c-0.424-0.965-1.037-1.836-1.777-2.575l-21.155-21.155L32.065,148.307l-3.158,3.157l17.398,3.73
			l3.755,17.425l0,0l0.515-0.434l-0.619,0.236c0.044,0.115,0.093,0.183,0.104,0.197l0.515-0.434l-0.619,0.236l1.189-0.452h-1.269
			c0,0.177,0.033,0.338,0.079,0.452l1.189-0.452h-1.269h1.365l-1.17-0.715c-0.111,0.174-0.2,0.451-0.195,0.715h1.365l-1.17-0.715
			l0.793,0.485l-0.65-0.673c-0.037,0.037-0.092,0.101-0.144,0.188l0.793,0.485l-0.65-0.673l0.327,0.338l-0.28-0.376l-0.047,0.038
			l0.327,0.338l-0.28-0.376l0.097,0.133l-0.09-0.138l-0.007,0.005l0.097,0.133l-0.09-0.138l-0.005,0.004l-22.114,13.628
			c-0.016,0.009-0.073,0.038-0.173,0.064c-0.097,0.023-0.235,0.043-0.388,0.043c-0.236,0.002-0.505-0.048-0.7-0.123
			c-0.198-0.073-0.313-0.167-0.331-0.187l-9.485-9.486c-0.021-0.019-0.113-0.133-0.188-0.331c-0.075-0.195-0.126-0.464-0.124-0.698
			c0-0.152,0.019-0.292,0.043-0.391c0.025-0.099,0.053-0.155,0.063-0.172l13.631-22.114v-0.006l-0.62-0.411l0.357,0.632
			c0.176-0.101,0.259-0.213,0.262-0.221l-0.62-0.411l0.357,0.632l-0.681-1.205v1.377c0.245,0.004,0.506-0.073,0.681-0.172
			l-0.681-1.205v1.377v-1.237l-0.501,1.141c0.116,0.052,0.298,0.097,0.501,0.097v-1.237l-0.501,1.141l0.298-0.679l-0.423,0.61
			c0.025,0.017,0.066,0.041,0.125,0.068l0.298-0.679l-0.423,0.61l0.192-0.277l-0.217,0.258l0.025,0.02l0.192-0.277l-0.217,0.258
			h0.003h-0.003l0,0h0.003h-0.003L32.065,148.307z"/>
		<path d="M21.11,163.206l3.507-3.509l0,0c-0.021-0.024-0.105-0.157-0.166-0.351c-0.065-0.193-0.102-0.437-0.102-0.637
			c0-0.131,0.015-0.24,0.031-0.31l0.02-0.072l0.004-0.011l-0.088-0.039l0.085,0.045l0.003-0.006l-0.088-0.039l0.085,0.045
			l11.049-21.686l-0.131-0.067l0.129,0.071l0.002-0.006l-0.131-0.065l0.129,0.071l0.003-0.007c0.015-0.021,0.07-0.092,0.164-0.172
			c0.141-0.128,0.368-0.266,0.584-0.35c0.219-0.088,0.416-0.11,0.476-0.109h0.02l0.007-0.087l-0.012,0.087h0.005l0.007-0.087
			l-0.012,0.087l0,0l24.04,3.81l0.021-0.138l-0.028,0.138h0.007l0.021-0.138l-0.028,0.138l0.012,0.002
			c0.035,0.011,0.142,0.052,0.266,0.134c0.193,0.125,0.416,0.346,0.55,0.539c0.07,0.099,0.116,0.185,0.139,0.243l0.023,0.063
			l0.003,0.013l0.1-0.026l-0.1,0.018v0.009l0.1-0.026l-0.1,0.018l3.805,24.039l0.072-0.011l-0.072,0.005v0.006l0.072-0.011
			l-0.072,0.005v0.018c0,0.047-0.009,0.165-0.053,0.312c-0.06,0.221-0.2,0.494-0.344,0.677c-0.069,0.092-0.137,0.161-0.183,0.199
			l-0.048,0.039l-0.009,0.005l0.053,0.092l-0.047-0.095l-0.006,0.003l0.053,0.092l-0.047-0.095l-21.688,11.049l0.044,0.086
			l-0.04-0.089l-0.004,0.003l0.044,0.086l-0.04-0.089c-0.002,0.005-0.159,0.057-0.389,0.054c-0.23,0.003-0.518-0.053-0.718-0.128
			c-0.097-0.035-0.179-0.078-0.225-0.108l-0.049-0.032l-0.004-0.004l-0.075,0.082l0.079-0.078l-0.004-0.004l-0.075,0.082
			l0.079-0.078l-17.21-17.211L21.11,163.206l-3.508,3.508l17.21,17.211c1.143,1.142,2.458,1.906,3.809,2.416
			c1.353,0.505,2.762,0.757,4.197,0.759c0.806,0,1.623-0.082,2.439-0.261c0.821-0.182,1.646-0.46,2.45-0.87l21.689-11.052
			c1-0.51,1.856-1.161,2.588-1.886c1.095-1.089,1.923-2.345,2.514-3.711c0.587-1.369,0.945-2.862,0.947-4.472
			c0-0.512-0.037-1.032-0.123-1.563l-3.805-24.037c-0.197-1.244-0.62-2.368-1.167-3.374c-0.826-1.504-1.936-2.763-3.271-3.775
			c-0.672-0.507-1.4-0.947-2.199-1.307c-0.798-0.356-1.664-0.632-2.596-0.78l-24.038-3.81l0,0c-0.534-0.082-1.057-0.121-1.569-0.121
			c-1.072,0.003-2.093,0.164-3.06,0.442c-1.449,0.418-2.782,1.097-3.978,2.014c-1.19,0.918-2.261,2.094-3.029,3.594l-11.05,21.686
			c-0.41,0.809-0.691,1.634-0.871,2.452c-0.18,0.817-0.262,1.636-0.262,2.441c0.002,1.437,0.254,2.842,0.759,4.197
			c0.509,1.35,1.276,2.665,2.416,3.807L21.11,163.206z"/>
		<path d="M23.295,144.252c-0.876,1.568,0.093,3.947,2.15,5.291l12.427,8.112c2.057,1.341,4.836,4.124,6.183,6.179l8.108,12.422
			c1.344,2.061,3.724,3.029,5.292,2.155c1.563-0.875,2.329-3.529,1.698-5.904l-5.136-19.354c-0.631-2.373-3.088-4.831-5.461-5.461
			l-19.357-5.141C26.823,141.92,24.168,142.688,23.295,144.252z"/>
		<g>
			<polygon points="75.811,34.243 75.826,34.155 75.816,34.237 			"/>
			<path d="M75.479,29.402c-0.438-1.51-1.139-2.895-2.095-4.144c-0.96-1.24-2.185-2.358-3.765-3.169L47.934,11.042
				c-0.844-0.431-1.713-0.725-2.566-0.915c-0.859-0.188-1.71-0.271-2.548-0.272c-1.499,0.004-2.96,0.265-4.374,0.792
				c-1.408,0.53-2.783,1.331-3.986,2.53l3.86,3.858l-3.86-3.858L17.252,30.384c-1.197,1.205-1.999,2.578-2.53,3.987
				c-0.526,1.411-0.788,2.875-0.792,4.372c0.001,0.839,0.086,1.689,0.274,2.547c0.189,0.857,0.481,1.721,0.914,2.569l11.049,21.684
				c0.146,0.286,0.307,0.559,0.472,0.822l1.025-0.417c1.312-0.526,2.638-0.722,3.942-0.725c1.313,0,2.612,0.205,3.861,0.605
				c1.247,0.404,2.458,1.001,3.549,1.911l3.893,3.268l19.451-3.08c1.309-0.208,2.482-0.646,3.531-1.22
				c1.568-0.864,2.877-2.018,3.935-3.411c0.527-0.695,0.985-1.459,1.362-2.292c0.373-0.835,0.664-1.743,0.819-2.722l3.809-24.047
				c0.084-0.553,0.125-1.101,0.125-1.636C75.941,31.476,75.77,30.41,75.479,29.402z M61.232,56.526
				c-0.007,0.017-0.032,0.074-0.089,0.154c-0.092,0.138-0.264,0.308-0.401,0.396c-0.064,0.044-0.113,0.068-0.137,0.077
				l-23.941,3.794l-0.031-0.004c-0.107-0.01-0.385-0.107-0.565-0.235c-0.093-0.063-0.16-0.125-0.189-0.156l-0.007-0.009
				L24.865,38.947c-0.006-0.03-0.02-0.105-0.018-0.204c-0.002-0.169,0.041-0.398,0.097-0.542c0.023-0.067,0.049-0.114,0.061-0.134
				l17.14-17.14c0.028-0.018,0.119-0.063,0.244-0.098c0.134-0.038,0.302-0.059,0.431-0.059c0.093,0,0.167,0.01,0.2,0.018h0.003
				L64.62,31.793l0.018,0.016c0.064,0.056,0.207,0.243,0.288,0.435c0.042,0.093,0.069,0.188,0.083,0.254l0.015,0.078v0.009
				l-0.005,0.04L61.232,56.526z"/>
		</g>
		<path d="M191.399,156.161c-0.189-0.857-0.481-1.721-0.912-2.569l-11.052-21.687c-0.535-1.053-1.219-1.949-1.976-2.712
			c-1.14-1.146-2.444-2.005-3.868-2.622c-1.425-0.61-2.979-0.982-4.664-0.988c-0.538,0-1.09,0.041-1.646,0.129l-24.038,3.81
			c-1.309,0.207-2.482,0.647-3.531,1.219c-1.57,0.866-2.88,2.019-3.935,3.413c-0.527,0.696-0.985,1.459-1.362,2.293
			c-0.375,0.832-0.664,1.741-0.815,2.721l-3.044,19.221l3.215,3.641c0.97,1.107,1.61,2.354,2.047,3.643
			c0.431,1.29,0.654,2.638,0.659,4.004c-0.005,1.204-0.177,2.435-0.633,3.653l-0.606,1.607c0.24,0.148,0.486,0.292,0.746,0.424
			l21.686,11.05c0.847,0.431,1.71,0.725,2.569,0.912c0.855,0.188,1.708,0.274,2.547,0.274c1.496-0.002,2.958-0.264,4.371-0.789
			c1.41-0.532,2.783-1.336,3.985-2.531l17.21-17.21c1.198-1.203,2.001-2.578,2.529-3.984c0.523-1.413,0.787-2.877,0.791-4.373
			C191.672,157.868,191.589,157.019,191.399,156.161z M163.458,176.521c-0.028,0.02-0.121,0.064-0.24,0.1
			c-0.139,0.038-0.304,0.06-0.433,0.06c-0.095,0-0.172-0.011-0.204-0.018v-0.002l-21.6-11.003l-0.017-0.017
			c-0.067-0.057-0.206-0.243-0.287-0.435c-0.039-0.093-0.07-0.187-0.086-0.254l-0.015-0.077v-0.009l3.794-23.942
			c0.006-0.018,0.029-0.073,0.089-0.154c0.089-0.14,0.266-0.31,0.399-0.397c0.065-0.044,0.116-0.069,0.14-0.078l23.94-3.793
			l0.03,0.004c0.109,0.009,0.388,0.105,0.567,0.234c0.092,0.061,0.16,0.123,0.188,0.157l0.009,0.007l11.004,21.602
			c0.008,0.028,0.018,0.104,0.02,0.202c0.001,0.172-0.042,0.399-0.099,0.54c-0.023,0.068-0.046,0.115-0.061,0.135L163.458,176.521z"
			/>
	</g>
</g>
</svg>
